<mxfile host="Electron" modified="2024-08-09T08:25:22.080Z" agent="Mozilla/5.0 (Windows NT 10.0; Win64; x64) AppleWebKit/537.36 (KHTML, like Gecko) draw.io/22.1.16 Chrome/120.0.6099.109 Electron/28.1.0 Safari/537.36" etag="oOEqvD8AItqvKEQ2wtoV" version="22.1.16" type="device">
  <diagram name="Page 1" id="Page-1">
    <mxGraphModel dx="1195" dy="1127" grid="1" gridSize="10" guides="1" tooltips="1" connect="1" arrows="1" fold="1" page="1" pageScale="1" pageWidth="700" pageHeight="330" math="0" shadow="0">
      <root>
        <mxCell id="0" />
        <mxCell id="1" parent="0" />
        <mxCell id="jg8gOIu9nnagvCek5dYj-255" value="" style="group" vertex="1" connectable="0" parent="1">
          <mxGeometry x="80" y="-311" width="155" height="92" as="geometry" />
        </mxCell>
        <mxCell id="jg8gOIu9nnagvCek5dYj-200" value="0" style="ellipse;whiteSpace=wrap;html=1;aspect=fixed;" vertex="1" parent="jg8gOIu9nnagvCek5dYj-255">
          <mxGeometry width="20" height="20" as="geometry" />
        </mxCell>
        <mxCell id="jg8gOIu9nnagvCek5dYj-202" value="1" style="ellipse;whiteSpace=wrap;html=1;aspect=fixed;" vertex="1" parent="jg8gOIu9nnagvCek5dYj-255">
          <mxGeometry x="40" width="20" height="20" as="geometry" />
        </mxCell>
        <mxCell id="jg8gOIu9nnagvCek5dYj-209" style="rounded=0;orthogonalLoop=1;jettySize=auto;html=1;endArrow=blockThin;endFill=1;" edge="1" parent="jg8gOIu9nnagvCek5dYj-255" source="jg8gOIu9nnagvCek5dYj-200" target="jg8gOIu9nnagvCek5dYj-202">
          <mxGeometry relative="1" as="geometry" />
        </mxCell>
        <mxCell id="jg8gOIu9nnagvCek5dYj-203" value="2" style="ellipse;whiteSpace=wrap;html=1;aspect=fixed;" vertex="1" parent="jg8gOIu9nnagvCek5dYj-255">
          <mxGeometry x="81.5" width="20" height="20" as="geometry" />
        </mxCell>
        <mxCell id="jg8gOIu9nnagvCek5dYj-210" style="rounded=0;orthogonalLoop=1;jettySize=auto;html=1;endArrow=blockThin;endFill=1;" edge="1" parent="jg8gOIu9nnagvCek5dYj-255" source="jg8gOIu9nnagvCek5dYj-202" target="jg8gOIu9nnagvCek5dYj-203">
          <mxGeometry relative="1" as="geometry" />
        </mxCell>
        <mxCell id="jg8gOIu9nnagvCek5dYj-205" value="4" style="ellipse;whiteSpace=wrap;html=1;aspect=fixed;" vertex="1" parent="jg8gOIu9nnagvCek5dYj-255">
          <mxGeometry x="135" y="45" width="20" height="20" as="geometry" />
        </mxCell>
        <mxCell id="jg8gOIu9nnagvCek5dYj-206" value="5" style="ellipse;whiteSpace=wrap;html=1;aspect=fixed;" vertex="1" parent="jg8gOIu9nnagvCek5dYj-255">
          <mxGeometry x="107" y="72" width="20" height="20" as="geometry" />
        </mxCell>
        <mxCell id="jg8gOIu9nnagvCek5dYj-207" value="6" style="ellipse;whiteSpace=wrap;html=1;aspect=fixed;" vertex="1" parent="jg8gOIu9nnagvCek5dYj-255">
          <mxGeometry x="67" y="65" width="20" height="20" as="geometry" />
        </mxCell>
        <mxCell id="jg8gOIu9nnagvCek5dYj-208" value="7" style="ellipse;whiteSpace=wrap;html=1;aspect=fixed;" vertex="1" parent="jg8gOIu9nnagvCek5dYj-255">
          <mxGeometry x="53" y="30" width="20" height="20" as="geometry" />
        </mxCell>
        <mxCell id="jg8gOIu9nnagvCek5dYj-212" style="rounded=0;orthogonalLoop=1;jettySize=auto;html=1;endArrow=blockThin;endFill=1;" edge="1" parent="jg8gOIu9nnagvCek5dYj-255" source="jg8gOIu9nnagvCek5dYj-203" target="jg8gOIu9nnagvCek5dYj-214">
          <mxGeometry relative="1" as="geometry">
            <mxPoint x="69" y="24" as="sourcePoint" />
            <mxPoint x="92" y="36" as="targetPoint" />
          </mxGeometry>
        </mxCell>
        <mxCell id="jg8gOIu9nnagvCek5dYj-214" value="3" style="ellipse;whiteSpace=wrap;html=1;aspect=fixed;" vertex="1" parent="jg8gOIu9nnagvCek5dYj-255">
          <mxGeometry x="124" y="10" width="20" height="20" as="geometry" />
        </mxCell>
        <mxCell id="jg8gOIu9nnagvCek5dYj-215" style="rounded=0;orthogonalLoop=1;jettySize=auto;html=1;endArrow=blockThin;endFill=1;" edge="1" parent="jg8gOIu9nnagvCek5dYj-255" source="jg8gOIu9nnagvCek5dYj-214" target="jg8gOIu9nnagvCek5dYj-205">
          <mxGeometry relative="1" as="geometry">
            <mxPoint x="113" y="34" as="sourcePoint" />
            <mxPoint x="191" y="66" as="targetPoint" />
          </mxGeometry>
        </mxCell>
        <mxCell id="jg8gOIu9nnagvCek5dYj-216" style="rounded=0;orthogonalLoop=1;jettySize=auto;html=1;endArrow=blockThin;endFill=1;" edge="1" parent="jg8gOIu9nnagvCek5dYj-255" source="jg8gOIu9nnagvCek5dYj-205" target="jg8gOIu9nnagvCek5dYj-206">
          <mxGeometry relative="1" as="geometry">
            <mxPoint x="123" y="44" as="sourcePoint" />
            <mxPoint x="201" y="76" as="targetPoint" />
          </mxGeometry>
        </mxCell>
        <mxCell id="jg8gOIu9nnagvCek5dYj-217" style="rounded=0;orthogonalLoop=1;jettySize=auto;html=1;endArrow=blockThin;endFill=1;" edge="1" parent="jg8gOIu9nnagvCek5dYj-255" source="jg8gOIu9nnagvCek5dYj-206" target="jg8gOIu9nnagvCek5dYj-207">
          <mxGeometry relative="1" as="geometry">
            <mxPoint x="133" y="54" as="sourcePoint" />
            <mxPoint x="211" y="86" as="targetPoint" />
          </mxGeometry>
        </mxCell>
        <mxCell id="jg8gOIu9nnagvCek5dYj-218" style="rounded=0;orthogonalLoop=1;jettySize=auto;html=1;endArrow=blockThin;endFill=1;" edge="1" parent="jg8gOIu9nnagvCek5dYj-255" source="jg8gOIu9nnagvCek5dYj-207" target="jg8gOIu9nnagvCek5dYj-208">
          <mxGeometry relative="1" as="geometry">
            <mxPoint x="143" y="64" as="sourcePoint" />
            <mxPoint x="221" y="96" as="targetPoint" />
          </mxGeometry>
        </mxCell>
        <mxCell id="jg8gOIu9nnagvCek5dYj-219" style="rounded=0;orthogonalLoop=1;jettySize=auto;html=1;endArrow=blockThin;endFill=1;" edge="1" parent="jg8gOIu9nnagvCek5dYj-255" source="jg8gOIu9nnagvCek5dYj-208" target="jg8gOIu9nnagvCek5dYj-203">
          <mxGeometry relative="1" as="geometry">
            <mxPoint x="153" y="74" as="sourcePoint" />
            <mxPoint x="231" y="106" as="targetPoint" />
          </mxGeometry>
        </mxCell>
        <mxCell id="jg8gOIu9nnagvCek5dYj-220" value="T&lt;sub&gt;0&lt;/sub&gt;" style="text;strokeColor=none;align=center;fillColor=none;html=1;verticalAlign=middle;whiteSpace=wrap;rounded=0;" vertex="1" parent="jg8gOIu9nnagvCek5dYj-255">
          <mxGeometry x="82.5" y="35" width="40" height="20" as="geometry" />
        </mxCell>
        <mxCell id="jg8gOIu9nnagvCek5dYj-256" value="" style="group" vertex="1" connectable="0" parent="1">
          <mxGeometry x="269" y="-311" width="155" height="92" as="geometry" />
        </mxCell>
        <mxCell id="jg8gOIu9nnagvCek5dYj-257" value="0" style="ellipse;whiteSpace=wrap;html=1;aspect=fixed;" vertex="1" parent="jg8gOIu9nnagvCek5dYj-256">
          <mxGeometry width="20" height="20" as="geometry" />
        </mxCell>
        <mxCell id="jg8gOIu9nnagvCek5dYj-258" value="1" style="ellipse;whiteSpace=wrap;html=1;aspect=fixed;" vertex="1" parent="jg8gOIu9nnagvCek5dYj-256">
          <mxGeometry x="40" width="20" height="20" as="geometry" />
        </mxCell>
        <mxCell id="jg8gOIu9nnagvCek5dYj-259" style="rounded=0;orthogonalLoop=1;jettySize=auto;html=1;endArrow=blockThin;endFill=1;" edge="1" parent="jg8gOIu9nnagvCek5dYj-256" source="jg8gOIu9nnagvCek5dYj-257" target="jg8gOIu9nnagvCek5dYj-258">
          <mxGeometry relative="1" as="geometry" />
        </mxCell>
        <mxCell id="jg8gOIu9nnagvCek5dYj-260" value="2" style="ellipse;whiteSpace=wrap;html=1;aspect=fixed;" vertex="1" parent="jg8gOIu9nnagvCek5dYj-256">
          <mxGeometry x="81.5" width="20" height="20" as="geometry" />
        </mxCell>
        <mxCell id="jg8gOIu9nnagvCek5dYj-261" style="rounded=0;orthogonalLoop=1;jettySize=auto;html=1;endArrow=blockThin;endFill=1;" edge="1" parent="jg8gOIu9nnagvCek5dYj-256" source="jg8gOIu9nnagvCek5dYj-258" target="jg8gOIu9nnagvCek5dYj-260">
          <mxGeometry relative="1" as="geometry" />
        </mxCell>
        <mxCell id="jg8gOIu9nnagvCek5dYj-262" value="4" style="ellipse;whiteSpace=wrap;html=1;aspect=fixed;" vertex="1" parent="jg8gOIu9nnagvCek5dYj-256">
          <mxGeometry x="135" y="45" width="20" height="20" as="geometry" />
        </mxCell>
        <mxCell id="jg8gOIu9nnagvCek5dYj-263" value="5" style="ellipse;whiteSpace=wrap;html=1;aspect=fixed;" vertex="1" parent="jg8gOIu9nnagvCek5dYj-256">
          <mxGeometry x="107" y="72" width="20" height="20" as="geometry" />
        </mxCell>
        <mxCell id="jg8gOIu9nnagvCek5dYj-264" value="6" style="ellipse;whiteSpace=wrap;html=1;aspect=fixed;" vertex="1" parent="jg8gOIu9nnagvCek5dYj-256">
          <mxGeometry x="67" y="65" width="20" height="20" as="geometry" />
        </mxCell>
        <mxCell id="jg8gOIu9nnagvCek5dYj-265" value="7" style="ellipse;whiteSpace=wrap;html=1;aspect=fixed;" vertex="1" parent="jg8gOIu9nnagvCek5dYj-256">
          <mxGeometry x="53" y="30" width="20" height="20" as="geometry" />
        </mxCell>
        <mxCell id="jg8gOIu9nnagvCek5dYj-266" style="rounded=0;orthogonalLoop=1;jettySize=auto;html=1;endArrow=blockThin;endFill=1;" edge="1" parent="jg8gOIu9nnagvCek5dYj-256" source="jg8gOIu9nnagvCek5dYj-260" target="jg8gOIu9nnagvCek5dYj-267">
          <mxGeometry relative="1" as="geometry">
            <mxPoint x="69" y="24" as="sourcePoint" />
            <mxPoint x="92" y="36" as="targetPoint" />
          </mxGeometry>
        </mxCell>
        <mxCell id="jg8gOIu9nnagvCek5dYj-267" value="3" style="ellipse;whiteSpace=wrap;html=1;aspect=fixed;" vertex="1" parent="jg8gOIu9nnagvCek5dYj-256">
          <mxGeometry x="124" y="10" width="20" height="20" as="geometry" />
        </mxCell>
        <mxCell id="jg8gOIu9nnagvCek5dYj-268" style="rounded=0;orthogonalLoop=1;jettySize=auto;html=1;endArrow=blockThin;endFill=1;" edge="1" parent="jg8gOIu9nnagvCek5dYj-256" source="jg8gOIu9nnagvCek5dYj-267" target="jg8gOIu9nnagvCek5dYj-262">
          <mxGeometry relative="1" as="geometry">
            <mxPoint x="113" y="34" as="sourcePoint" />
            <mxPoint x="191" y="66" as="targetPoint" />
          </mxGeometry>
        </mxCell>
        <mxCell id="jg8gOIu9nnagvCek5dYj-269" style="rounded=0;orthogonalLoop=1;jettySize=auto;html=1;endArrow=blockThin;endFill=1;" edge="1" parent="jg8gOIu9nnagvCek5dYj-256" source="jg8gOIu9nnagvCek5dYj-262" target="jg8gOIu9nnagvCek5dYj-263">
          <mxGeometry relative="1" as="geometry">
            <mxPoint x="123" y="44" as="sourcePoint" />
            <mxPoint x="201" y="76" as="targetPoint" />
          </mxGeometry>
        </mxCell>
        <mxCell id="jg8gOIu9nnagvCek5dYj-270" style="rounded=0;orthogonalLoop=1;jettySize=auto;html=1;endArrow=blockThin;endFill=1;" edge="1" parent="jg8gOIu9nnagvCek5dYj-256" source="jg8gOIu9nnagvCek5dYj-263" target="jg8gOIu9nnagvCek5dYj-264">
          <mxGeometry relative="1" as="geometry">
            <mxPoint x="133" y="54" as="sourcePoint" />
            <mxPoint x="211" y="86" as="targetPoint" />
          </mxGeometry>
        </mxCell>
        <mxCell id="jg8gOIu9nnagvCek5dYj-271" style="rounded=0;orthogonalLoop=1;jettySize=auto;html=1;endArrow=blockThin;endFill=1;" edge="1" parent="jg8gOIu9nnagvCek5dYj-256" source="jg8gOIu9nnagvCek5dYj-264" target="jg8gOIu9nnagvCek5dYj-265">
          <mxGeometry relative="1" as="geometry">
            <mxPoint x="143" y="64" as="sourcePoint" />
            <mxPoint x="221" y="96" as="targetPoint" />
          </mxGeometry>
        </mxCell>
        <mxCell id="jg8gOIu9nnagvCek5dYj-272" style="rounded=0;orthogonalLoop=1;jettySize=auto;html=1;endArrow=blockThin;endFill=1;" edge="1" parent="jg8gOIu9nnagvCek5dYj-256" source="jg8gOIu9nnagvCek5dYj-265" target="jg8gOIu9nnagvCek5dYj-260">
          <mxGeometry relative="1" as="geometry">
            <mxPoint x="153" y="74" as="sourcePoint" />
            <mxPoint x="231" y="106" as="targetPoint" />
          </mxGeometry>
        </mxCell>
        <mxCell id="jg8gOIu9nnagvCek5dYj-273" value="T&lt;sub&gt;1&lt;/sub&gt;" style="text;strokeColor=none;align=center;fillColor=none;html=1;verticalAlign=middle;whiteSpace=wrap;rounded=0;" vertex="1" parent="jg8gOIu9nnagvCek5dYj-256">
          <mxGeometry x="82.5" y="35" width="40" height="20" as="geometry" />
        </mxCell>
        <mxCell id="jg8gOIu9nnagvCek5dYj-274" value="" style="group" vertex="1" connectable="0" parent="1">
          <mxGeometry x="456.5" y="-311" width="155" height="92" as="geometry" />
        </mxCell>
        <mxCell id="jg8gOIu9nnagvCek5dYj-275" value="0" style="ellipse;whiteSpace=wrap;html=1;aspect=fixed;" vertex="1" parent="jg8gOIu9nnagvCek5dYj-274">
          <mxGeometry width="20" height="20" as="geometry" />
        </mxCell>
        <mxCell id="jg8gOIu9nnagvCek5dYj-276" value="1" style="ellipse;whiteSpace=wrap;html=1;aspect=fixed;" vertex="1" parent="jg8gOIu9nnagvCek5dYj-274">
          <mxGeometry x="40" width="20" height="20" as="geometry" />
        </mxCell>
        <mxCell id="jg8gOIu9nnagvCek5dYj-277" style="rounded=0;orthogonalLoop=1;jettySize=auto;html=1;endArrow=blockThin;endFill=1;" edge="1" parent="jg8gOIu9nnagvCek5dYj-274" source="jg8gOIu9nnagvCek5dYj-275" target="jg8gOIu9nnagvCek5dYj-276">
          <mxGeometry relative="1" as="geometry" />
        </mxCell>
        <mxCell id="jg8gOIu9nnagvCek5dYj-278" value="2" style="ellipse;whiteSpace=wrap;html=1;aspect=fixed;" vertex="1" parent="jg8gOIu9nnagvCek5dYj-274">
          <mxGeometry x="81.5" width="20" height="20" as="geometry" />
        </mxCell>
        <mxCell id="jg8gOIu9nnagvCek5dYj-279" style="rounded=0;orthogonalLoop=1;jettySize=auto;html=1;endArrow=blockThin;endFill=1;" edge="1" parent="jg8gOIu9nnagvCek5dYj-274" source="jg8gOIu9nnagvCek5dYj-276" target="jg8gOIu9nnagvCek5dYj-278">
          <mxGeometry relative="1" as="geometry" />
        </mxCell>
        <mxCell id="jg8gOIu9nnagvCek5dYj-280" value="4" style="ellipse;whiteSpace=wrap;html=1;aspect=fixed;" vertex="1" parent="jg8gOIu9nnagvCek5dYj-274">
          <mxGeometry x="135" y="45" width="20" height="20" as="geometry" />
        </mxCell>
        <mxCell id="jg8gOIu9nnagvCek5dYj-281" value="5" style="ellipse;whiteSpace=wrap;html=1;aspect=fixed;" vertex="1" parent="jg8gOIu9nnagvCek5dYj-274">
          <mxGeometry x="107" y="72" width="20" height="20" as="geometry" />
        </mxCell>
        <mxCell id="jg8gOIu9nnagvCek5dYj-282" value="6" style="ellipse;whiteSpace=wrap;html=1;aspect=fixed;" vertex="1" parent="jg8gOIu9nnagvCek5dYj-274">
          <mxGeometry x="67" y="65" width="20" height="20" as="geometry" />
        </mxCell>
        <mxCell id="jg8gOIu9nnagvCek5dYj-283" value="7" style="ellipse;whiteSpace=wrap;html=1;aspect=fixed;" vertex="1" parent="jg8gOIu9nnagvCek5dYj-274">
          <mxGeometry x="53" y="30" width="20" height="20" as="geometry" />
        </mxCell>
        <mxCell id="jg8gOIu9nnagvCek5dYj-284" style="rounded=0;orthogonalLoop=1;jettySize=auto;html=1;endArrow=blockThin;endFill=1;" edge="1" parent="jg8gOIu9nnagvCek5dYj-274" source="jg8gOIu9nnagvCek5dYj-278" target="jg8gOIu9nnagvCek5dYj-285">
          <mxGeometry relative="1" as="geometry">
            <mxPoint x="69" y="24" as="sourcePoint" />
            <mxPoint x="92" y="36" as="targetPoint" />
          </mxGeometry>
        </mxCell>
        <mxCell id="jg8gOIu9nnagvCek5dYj-285" value="3" style="ellipse;whiteSpace=wrap;html=1;aspect=fixed;" vertex="1" parent="jg8gOIu9nnagvCek5dYj-274">
          <mxGeometry x="124" y="10" width="20" height="20" as="geometry" />
        </mxCell>
        <mxCell id="jg8gOIu9nnagvCek5dYj-286" style="rounded=0;orthogonalLoop=1;jettySize=auto;html=1;endArrow=blockThin;endFill=1;" edge="1" parent="jg8gOIu9nnagvCek5dYj-274" source="jg8gOIu9nnagvCek5dYj-285" target="jg8gOIu9nnagvCek5dYj-280">
          <mxGeometry relative="1" as="geometry">
            <mxPoint x="113" y="34" as="sourcePoint" />
            <mxPoint x="191" y="66" as="targetPoint" />
          </mxGeometry>
        </mxCell>
        <mxCell id="jg8gOIu9nnagvCek5dYj-287" style="rounded=0;orthogonalLoop=1;jettySize=auto;html=1;endArrow=blockThin;endFill=1;" edge="1" parent="jg8gOIu9nnagvCek5dYj-274" source="jg8gOIu9nnagvCek5dYj-280" target="jg8gOIu9nnagvCek5dYj-281">
          <mxGeometry relative="1" as="geometry">
            <mxPoint x="123" y="44" as="sourcePoint" />
            <mxPoint x="201" y="76" as="targetPoint" />
          </mxGeometry>
        </mxCell>
        <mxCell id="jg8gOIu9nnagvCek5dYj-288" style="rounded=0;orthogonalLoop=1;jettySize=auto;html=1;endArrow=blockThin;endFill=1;" edge="1" parent="jg8gOIu9nnagvCek5dYj-274" source="jg8gOIu9nnagvCek5dYj-281" target="jg8gOIu9nnagvCek5dYj-282">
          <mxGeometry relative="1" as="geometry">
            <mxPoint x="133" y="54" as="sourcePoint" />
            <mxPoint x="211" y="86" as="targetPoint" />
          </mxGeometry>
        </mxCell>
        <mxCell id="jg8gOIu9nnagvCek5dYj-289" style="rounded=0;orthogonalLoop=1;jettySize=auto;html=1;endArrow=blockThin;endFill=1;" edge="1" parent="jg8gOIu9nnagvCek5dYj-274" source="jg8gOIu9nnagvCek5dYj-282" target="jg8gOIu9nnagvCek5dYj-283">
          <mxGeometry relative="1" as="geometry">
            <mxPoint x="143" y="64" as="sourcePoint" />
            <mxPoint x="221" y="96" as="targetPoint" />
          </mxGeometry>
        </mxCell>
        <mxCell id="jg8gOIu9nnagvCek5dYj-290" style="rounded=0;orthogonalLoop=1;jettySize=auto;html=1;endArrow=blockThin;endFill=1;" edge="1" parent="jg8gOIu9nnagvCek5dYj-274" source="jg8gOIu9nnagvCek5dYj-283" target="jg8gOIu9nnagvCek5dYj-278">
          <mxGeometry relative="1" as="geometry">
            <mxPoint x="153" y="74" as="sourcePoint" />
            <mxPoint x="231" y="106" as="targetPoint" />
          </mxGeometry>
        </mxCell>
        <mxCell id="jg8gOIu9nnagvCek5dYj-291" value="T&lt;sub&gt;2&lt;/sub&gt;" style="text;strokeColor=none;align=center;fillColor=none;html=1;verticalAlign=middle;whiteSpace=wrap;rounded=0;" vertex="1" parent="jg8gOIu9nnagvCek5dYj-274">
          <mxGeometry x="82.5" y="35" width="40" height="20" as="geometry" />
        </mxCell>
        <mxCell id="jg8gOIu9nnagvCek5dYj-292" value="" style="group" vertex="1" connectable="0" parent="1">
          <mxGeometry x="83.5" y="-202" width="155" height="92" as="geometry" />
        </mxCell>
        <mxCell id="jg8gOIu9nnagvCek5dYj-293" value="0" style="ellipse;whiteSpace=wrap;html=1;aspect=fixed;" vertex="1" parent="jg8gOIu9nnagvCek5dYj-292">
          <mxGeometry width="20" height="20" as="geometry" />
        </mxCell>
        <mxCell id="jg8gOIu9nnagvCek5dYj-294" value="1" style="ellipse;whiteSpace=wrap;html=1;aspect=fixed;" vertex="1" parent="jg8gOIu9nnagvCek5dYj-292">
          <mxGeometry x="40" width="20" height="20" as="geometry" />
        </mxCell>
        <mxCell id="jg8gOIu9nnagvCek5dYj-295" style="rounded=0;orthogonalLoop=1;jettySize=auto;html=1;endArrow=blockThin;endFill=1;" edge="1" parent="jg8gOIu9nnagvCek5dYj-292" source="jg8gOIu9nnagvCek5dYj-293" target="jg8gOIu9nnagvCek5dYj-294">
          <mxGeometry relative="1" as="geometry" />
        </mxCell>
        <mxCell id="jg8gOIu9nnagvCek5dYj-296" value="2" style="ellipse;whiteSpace=wrap;html=1;aspect=fixed;" vertex="1" parent="jg8gOIu9nnagvCek5dYj-292">
          <mxGeometry x="81.5" width="20" height="20" as="geometry" />
        </mxCell>
        <mxCell id="jg8gOIu9nnagvCek5dYj-297" style="rounded=0;orthogonalLoop=1;jettySize=auto;html=1;endArrow=blockThin;endFill=1;" edge="1" parent="jg8gOIu9nnagvCek5dYj-292" source="jg8gOIu9nnagvCek5dYj-294" target="jg8gOIu9nnagvCek5dYj-296">
          <mxGeometry relative="1" as="geometry" />
        </mxCell>
        <mxCell id="jg8gOIu9nnagvCek5dYj-298" value="4" style="ellipse;whiteSpace=wrap;html=1;aspect=fixed;" vertex="1" parent="jg8gOIu9nnagvCek5dYj-292">
          <mxGeometry x="135" y="45" width="20" height="20" as="geometry" />
        </mxCell>
        <mxCell id="jg8gOIu9nnagvCek5dYj-299" value="5" style="ellipse;whiteSpace=wrap;html=1;aspect=fixed;" vertex="1" parent="jg8gOIu9nnagvCek5dYj-292">
          <mxGeometry x="107" y="72" width="20" height="20" as="geometry" />
        </mxCell>
        <mxCell id="jg8gOIu9nnagvCek5dYj-300" value="6" style="ellipse;whiteSpace=wrap;html=1;aspect=fixed;" vertex="1" parent="jg8gOIu9nnagvCek5dYj-292">
          <mxGeometry x="67" y="65" width="20" height="20" as="geometry" />
        </mxCell>
        <mxCell id="jg8gOIu9nnagvCek5dYj-301" value="7" style="ellipse;whiteSpace=wrap;html=1;aspect=fixed;" vertex="1" parent="jg8gOIu9nnagvCek5dYj-292">
          <mxGeometry x="53" y="30" width="20" height="20" as="geometry" />
        </mxCell>
        <mxCell id="jg8gOIu9nnagvCek5dYj-302" style="rounded=0;orthogonalLoop=1;jettySize=auto;html=1;endArrow=blockThin;endFill=1;" edge="1" parent="jg8gOIu9nnagvCek5dYj-292" source="jg8gOIu9nnagvCek5dYj-296" target="jg8gOIu9nnagvCek5dYj-303">
          <mxGeometry relative="1" as="geometry">
            <mxPoint x="69" y="24" as="sourcePoint" />
            <mxPoint x="92" y="36" as="targetPoint" />
          </mxGeometry>
        </mxCell>
        <mxCell id="jg8gOIu9nnagvCek5dYj-303" value="3" style="ellipse;whiteSpace=wrap;html=1;aspect=fixed;" vertex="1" parent="jg8gOIu9nnagvCek5dYj-292">
          <mxGeometry x="124" y="10" width="20" height="20" as="geometry" />
        </mxCell>
        <mxCell id="jg8gOIu9nnagvCek5dYj-304" style="rounded=0;orthogonalLoop=1;jettySize=auto;html=1;endArrow=blockThin;endFill=1;" edge="1" parent="jg8gOIu9nnagvCek5dYj-292" source="jg8gOIu9nnagvCek5dYj-303" target="jg8gOIu9nnagvCek5dYj-298">
          <mxGeometry relative="1" as="geometry">
            <mxPoint x="113" y="34" as="sourcePoint" />
            <mxPoint x="191" y="66" as="targetPoint" />
          </mxGeometry>
        </mxCell>
        <mxCell id="jg8gOIu9nnagvCek5dYj-305" style="rounded=0;orthogonalLoop=1;jettySize=auto;html=1;endArrow=blockThin;endFill=1;" edge="1" parent="jg8gOIu9nnagvCek5dYj-292" source="jg8gOIu9nnagvCek5dYj-298" target="jg8gOIu9nnagvCek5dYj-299">
          <mxGeometry relative="1" as="geometry">
            <mxPoint x="123" y="44" as="sourcePoint" />
            <mxPoint x="201" y="76" as="targetPoint" />
          </mxGeometry>
        </mxCell>
        <mxCell id="jg8gOIu9nnagvCek5dYj-306" style="rounded=0;orthogonalLoop=1;jettySize=auto;html=1;endArrow=blockThin;endFill=1;" edge="1" parent="jg8gOIu9nnagvCek5dYj-292" source="jg8gOIu9nnagvCek5dYj-299" target="jg8gOIu9nnagvCek5dYj-300">
          <mxGeometry relative="1" as="geometry">
            <mxPoint x="133" y="54" as="sourcePoint" />
            <mxPoint x="211" y="86" as="targetPoint" />
          </mxGeometry>
        </mxCell>
        <mxCell id="jg8gOIu9nnagvCek5dYj-307" style="rounded=0;orthogonalLoop=1;jettySize=auto;html=1;endArrow=blockThin;endFill=1;" edge="1" parent="jg8gOIu9nnagvCek5dYj-292" source="jg8gOIu9nnagvCek5dYj-300" target="jg8gOIu9nnagvCek5dYj-301">
          <mxGeometry relative="1" as="geometry">
            <mxPoint x="143" y="64" as="sourcePoint" />
            <mxPoint x="221" y="96" as="targetPoint" />
          </mxGeometry>
        </mxCell>
        <mxCell id="jg8gOIu9nnagvCek5dYj-308" style="rounded=0;orthogonalLoop=1;jettySize=auto;html=1;endArrow=blockThin;endFill=1;" edge="1" parent="jg8gOIu9nnagvCek5dYj-292" source="jg8gOIu9nnagvCek5dYj-301" target="jg8gOIu9nnagvCek5dYj-296">
          <mxGeometry relative="1" as="geometry">
            <mxPoint x="153" y="74" as="sourcePoint" />
            <mxPoint x="231" y="106" as="targetPoint" />
          </mxGeometry>
        </mxCell>
        <mxCell id="jg8gOIu9nnagvCek5dYj-309" value="T&lt;sub&gt;3&lt;/sub&gt;" style="text;strokeColor=none;align=center;fillColor=none;html=1;verticalAlign=middle;whiteSpace=wrap;rounded=0;" vertex="1" parent="jg8gOIu9nnagvCek5dYj-292">
          <mxGeometry x="82.5" y="35" width="40" height="20" as="geometry" />
        </mxCell>
        <UserObject label="" tags="Background" id="jg8gOIu9nnagvCek5dYj-370">
          <mxCell style="vsdxID=18;fillColor=#dae8fc;shape=stencil(vVFBDgIhDHwNRxKE+IJ1/Ufjll0iLpuCLv5eSDWKevLgbaYznTatMF2cYEGhVUwUjri6IU3C7ITWbp6QXCpImF6YzgbCkcJ5HpgvUJ0VncKlJmTuU7VDqyuzLdM9O4EORaLcaIpa7yNoo75GqSwhuygpJEguzM1UDzSiLGOk9TDec1iKK+LyUf5lsf+tVcDzzNZ5z1961d/fUkr8UtPfAA==);strokeColor=#6c8ebf;points=[[0.5,0,0],[0.5,0.5,0],[0.5,0.5,0],[0.5,0.5,0],[1,0.5,0],[0.15,0.85,0],[0.85,0.85,0],[0.85,0.15,0],[0.15,0.15,0]];labelBackgroundColor=none;rounded=0;html=1;whiteSpace=wrap;" vertex="1" parent="jg8gOIu9nnagvCek5dYj-292">
            <mxGeometry x="147" y="2" width="8" height="8" as="geometry" />
          </mxCell>
        </UserObject>
        <UserObject label="" tags="Background" id="jg8gOIu9nnagvCek5dYj-376">
          <mxCell style="vsdxID=17;fillColor=#ffe6cc;shape=stencil(vVFBDgIhDHwNRxKE+IJ1/Ufjll0iLpuCLv5eSDWKevLgbaYznTatMF2cYEGhVUwUjri6IU3C7ITWbp6QXCpImF6YzgbCkcJ5HpgvUJ0VncKlJmTuU7VDqyuzLdM9O4EORaLcaIpa7yNoo75GqSwhuygpJEguzM1UDzSiLGOk9TDec1iKK+LyUf5lsf+tVcDzzNZ5z1961d/fUkr8UtPfAA==);strokeColor=#d79b00;points=[[0.5,0,0],[0.5,0.5,0],[0.5,0.5,0],[0.5,0.5,0],[1,0.5,0],[0.15,0.85,0],[0.85,0.85,0],[0.85,0.15,0],[0.15,0.15,0]];labelBackgroundColor=none;rounded=0;html=1;whiteSpace=wrap;" vertex="1" parent="jg8gOIu9nnagvCek5dYj-292">
            <mxGeometry x="60" y="84" width="8" height="8" as="geometry" />
          </mxCell>
        </UserObject>
        <mxCell id="jg8gOIu9nnagvCek5dYj-310" value="" style="group" vertex="1" connectable="0" parent="1">
          <mxGeometry x="272.5" y="-202" width="155" height="92" as="geometry" />
        </mxCell>
        <mxCell id="jg8gOIu9nnagvCek5dYj-311" value="0" style="ellipse;whiteSpace=wrap;html=1;aspect=fixed;" vertex="1" parent="jg8gOIu9nnagvCek5dYj-310">
          <mxGeometry width="20" height="20" as="geometry" />
        </mxCell>
        <mxCell id="jg8gOIu9nnagvCek5dYj-312" value="1" style="ellipse;whiteSpace=wrap;html=1;aspect=fixed;" vertex="1" parent="jg8gOIu9nnagvCek5dYj-310">
          <mxGeometry x="40" width="20" height="20" as="geometry" />
        </mxCell>
        <mxCell id="jg8gOIu9nnagvCek5dYj-313" style="rounded=0;orthogonalLoop=1;jettySize=auto;html=1;endArrow=blockThin;endFill=1;" edge="1" parent="jg8gOIu9nnagvCek5dYj-310" source="jg8gOIu9nnagvCek5dYj-311" target="jg8gOIu9nnagvCek5dYj-312">
          <mxGeometry relative="1" as="geometry" />
        </mxCell>
        <mxCell id="jg8gOIu9nnagvCek5dYj-314" value="2" style="ellipse;whiteSpace=wrap;html=1;aspect=fixed;" vertex="1" parent="jg8gOIu9nnagvCek5dYj-310">
          <mxGeometry x="81.5" width="20" height="20" as="geometry" />
        </mxCell>
        <mxCell id="jg8gOIu9nnagvCek5dYj-315" style="rounded=0;orthogonalLoop=1;jettySize=auto;html=1;endArrow=blockThin;endFill=1;" edge="1" parent="jg8gOIu9nnagvCek5dYj-310" source="jg8gOIu9nnagvCek5dYj-312" target="jg8gOIu9nnagvCek5dYj-314">
          <mxGeometry relative="1" as="geometry" />
        </mxCell>
        <mxCell id="jg8gOIu9nnagvCek5dYj-316" value="4" style="ellipse;whiteSpace=wrap;html=1;aspect=fixed;" vertex="1" parent="jg8gOIu9nnagvCek5dYj-310">
          <mxGeometry x="135" y="45" width="20" height="20" as="geometry" />
        </mxCell>
        <mxCell id="jg8gOIu9nnagvCek5dYj-317" value="5" style="ellipse;whiteSpace=wrap;html=1;aspect=fixed;" vertex="1" parent="jg8gOIu9nnagvCek5dYj-310">
          <mxGeometry x="107" y="72" width="20" height="20" as="geometry" />
        </mxCell>
        <mxCell id="jg8gOIu9nnagvCek5dYj-318" value="6" style="ellipse;whiteSpace=wrap;html=1;aspect=fixed;" vertex="1" parent="jg8gOIu9nnagvCek5dYj-310">
          <mxGeometry x="67" y="65" width="20" height="20" as="geometry" />
        </mxCell>
        <mxCell id="jg8gOIu9nnagvCek5dYj-319" value="7" style="ellipse;whiteSpace=wrap;html=1;aspect=fixed;" vertex="1" parent="jg8gOIu9nnagvCek5dYj-310">
          <mxGeometry x="53" y="30" width="20" height="20" as="geometry" />
        </mxCell>
        <mxCell id="jg8gOIu9nnagvCek5dYj-320" style="rounded=0;orthogonalLoop=1;jettySize=auto;html=1;endArrow=blockThin;endFill=1;" edge="1" parent="jg8gOIu9nnagvCek5dYj-310" source="jg8gOIu9nnagvCek5dYj-314" target="jg8gOIu9nnagvCek5dYj-321">
          <mxGeometry relative="1" as="geometry">
            <mxPoint x="69" y="24" as="sourcePoint" />
            <mxPoint x="92" y="36" as="targetPoint" />
          </mxGeometry>
        </mxCell>
        <mxCell id="jg8gOIu9nnagvCek5dYj-321" value="3" style="ellipse;whiteSpace=wrap;html=1;aspect=fixed;" vertex="1" parent="jg8gOIu9nnagvCek5dYj-310">
          <mxGeometry x="124" y="10" width="20" height="20" as="geometry" />
        </mxCell>
        <mxCell id="jg8gOIu9nnagvCek5dYj-322" style="rounded=0;orthogonalLoop=1;jettySize=auto;html=1;endArrow=blockThin;endFill=1;" edge="1" parent="jg8gOIu9nnagvCek5dYj-310" source="jg8gOIu9nnagvCek5dYj-321" target="jg8gOIu9nnagvCek5dYj-316">
          <mxGeometry relative="1" as="geometry">
            <mxPoint x="113" y="34" as="sourcePoint" />
            <mxPoint x="191" y="66" as="targetPoint" />
          </mxGeometry>
        </mxCell>
        <mxCell id="jg8gOIu9nnagvCek5dYj-323" style="rounded=0;orthogonalLoop=1;jettySize=auto;html=1;endArrow=blockThin;endFill=1;" edge="1" parent="jg8gOIu9nnagvCek5dYj-310" source="jg8gOIu9nnagvCek5dYj-316" target="jg8gOIu9nnagvCek5dYj-317">
          <mxGeometry relative="1" as="geometry">
            <mxPoint x="123" y="44" as="sourcePoint" />
            <mxPoint x="201" y="76" as="targetPoint" />
          </mxGeometry>
        </mxCell>
        <mxCell id="jg8gOIu9nnagvCek5dYj-324" style="rounded=0;orthogonalLoop=1;jettySize=auto;html=1;endArrow=blockThin;endFill=1;" edge="1" parent="jg8gOIu9nnagvCek5dYj-310" source="jg8gOIu9nnagvCek5dYj-317" target="jg8gOIu9nnagvCek5dYj-318">
          <mxGeometry relative="1" as="geometry">
            <mxPoint x="133" y="54" as="sourcePoint" />
            <mxPoint x="211" y="86" as="targetPoint" />
          </mxGeometry>
        </mxCell>
        <mxCell id="jg8gOIu9nnagvCek5dYj-325" style="rounded=0;orthogonalLoop=1;jettySize=auto;html=1;endArrow=blockThin;endFill=1;" edge="1" parent="jg8gOIu9nnagvCek5dYj-310" source="jg8gOIu9nnagvCek5dYj-318" target="jg8gOIu9nnagvCek5dYj-319">
          <mxGeometry relative="1" as="geometry">
            <mxPoint x="143" y="64" as="sourcePoint" />
            <mxPoint x="221" y="96" as="targetPoint" />
          </mxGeometry>
        </mxCell>
        <mxCell id="jg8gOIu9nnagvCek5dYj-326" style="rounded=0;orthogonalLoop=1;jettySize=auto;html=1;endArrow=blockThin;endFill=1;" edge="1" parent="jg8gOIu9nnagvCek5dYj-310" source="jg8gOIu9nnagvCek5dYj-319" target="jg8gOIu9nnagvCek5dYj-314">
          <mxGeometry relative="1" as="geometry">
            <mxPoint x="153" y="74" as="sourcePoint" />
            <mxPoint x="231" y="106" as="targetPoint" />
          </mxGeometry>
        </mxCell>
        <mxCell id="jg8gOIu9nnagvCek5dYj-327" value="T&lt;sub&gt;4&lt;/sub&gt;" style="text;strokeColor=none;align=center;fillColor=none;html=1;verticalAlign=middle;whiteSpace=wrap;rounded=0;" vertex="1" parent="jg8gOIu9nnagvCek5dYj-310">
          <mxGeometry x="82.5" y="35" width="40" height="20" as="geometry" />
        </mxCell>
        <mxCell id="jg8gOIu9nnagvCek5dYj-328" value="" style="group" vertex="1" connectable="0" parent="1">
          <mxGeometry x="460" y="-202" width="155" height="92" as="geometry" />
        </mxCell>
        <mxCell id="jg8gOIu9nnagvCek5dYj-329" value="0" style="ellipse;whiteSpace=wrap;html=1;aspect=fixed;" vertex="1" parent="jg8gOIu9nnagvCek5dYj-328">
          <mxGeometry width="20" height="20" as="geometry" />
        </mxCell>
        <mxCell id="jg8gOIu9nnagvCek5dYj-330" value="1" style="ellipse;whiteSpace=wrap;html=1;aspect=fixed;" vertex="1" parent="jg8gOIu9nnagvCek5dYj-328">
          <mxGeometry x="40" width="20" height="20" as="geometry" />
        </mxCell>
        <mxCell id="jg8gOIu9nnagvCek5dYj-331" style="rounded=0;orthogonalLoop=1;jettySize=auto;html=1;endArrow=blockThin;endFill=1;" edge="1" parent="jg8gOIu9nnagvCek5dYj-328" source="jg8gOIu9nnagvCek5dYj-329" target="jg8gOIu9nnagvCek5dYj-330">
          <mxGeometry relative="1" as="geometry" />
        </mxCell>
        <mxCell id="jg8gOIu9nnagvCek5dYj-332" value="2" style="ellipse;whiteSpace=wrap;html=1;aspect=fixed;" vertex="1" parent="jg8gOIu9nnagvCek5dYj-328">
          <mxGeometry x="81.5" width="20" height="20" as="geometry" />
        </mxCell>
        <mxCell id="jg8gOIu9nnagvCek5dYj-333" style="rounded=0;orthogonalLoop=1;jettySize=auto;html=1;endArrow=blockThin;endFill=1;" edge="1" parent="jg8gOIu9nnagvCek5dYj-328" source="jg8gOIu9nnagvCek5dYj-330" target="jg8gOIu9nnagvCek5dYj-332">
          <mxGeometry relative="1" as="geometry" />
        </mxCell>
        <mxCell id="jg8gOIu9nnagvCek5dYj-334" value="4" style="ellipse;whiteSpace=wrap;html=1;aspect=fixed;" vertex="1" parent="jg8gOIu9nnagvCek5dYj-328">
          <mxGeometry x="135" y="45" width="20" height="20" as="geometry" />
        </mxCell>
        <mxCell id="jg8gOIu9nnagvCek5dYj-335" value="5" style="ellipse;whiteSpace=wrap;html=1;aspect=fixed;" vertex="1" parent="jg8gOIu9nnagvCek5dYj-328">
          <mxGeometry x="107" y="72" width="20" height="20" as="geometry" />
        </mxCell>
        <mxCell id="jg8gOIu9nnagvCek5dYj-336" value="6" style="ellipse;whiteSpace=wrap;html=1;aspect=fixed;" vertex="1" parent="jg8gOIu9nnagvCek5dYj-328">
          <mxGeometry x="67" y="65" width="20" height="20" as="geometry" />
        </mxCell>
        <mxCell id="jg8gOIu9nnagvCek5dYj-337" value="7" style="ellipse;whiteSpace=wrap;html=1;aspect=fixed;" vertex="1" parent="jg8gOIu9nnagvCek5dYj-328">
          <mxGeometry x="53" y="30" width="20" height="20" as="geometry" />
        </mxCell>
        <mxCell id="jg8gOIu9nnagvCek5dYj-338" style="rounded=0;orthogonalLoop=1;jettySize=auto;html=1;endArrow=blockThin;endFill=1;" edge="1" parent="jg8gOIu9nnagvCek5dYj-328" source="jg8gOIu9nnagvCek5dYj-332" target="jg8gOIu9nnagvCek5dYj-339">
          <mxGeometry relative="1" as="geometry">
            <mxPoint x="69" y="24" as="sourcePoint" />
            <mxPoint x="92" y="36" as="targetPoint" />
          </mxGeometry>
        </mxCell>
        <mxCell id="jg8gOIu9nnagvCek5dYj-339" value="3" style="ellipse;whiteSpace=wrap;html=1;aspect=fixed;" vertex="1" parent="jg8gOIu9nnagvCek5dYj-328">
          <mxGeometry x="124" y="10" width="20" height="20" as="geometry" />
        </mxCell>
        <mxCell id="jg8gOIu9nnagvCek5dYj-340" style="rounded=0;orthogonalLoop=1;jettySize=auto;html=1;endArrow=blockThin;endFill=1;" edge="1" parent="jg8gOIu9nnagvCek5dYj-328" source="jg8gOIu9nnagvCek5dYj-339" target="jg8gOIu9nnagvCek5dYj-334">
          <mxGeometry relative="1" as="geometry">
            <mxPoint x="113" y="34" as="sourcePoint" />
            <mxPoint x="191" y="66" as="targetPoint" />
          </mxGeometry>
        </mxCell>
        <mxCell id="jg8gOIu9nnagvCek5dYj-341" style="rounded=0;orthogonalLoop=1;jettySize=auto;html=1;endArrow=blockThin;endFill=1;" edge="1" parent="jg8gOIu9nnagvCek5dYj-328" source="jg8gOIu9nnagvCek5dYj-334" target="jg8gOIu9nnagvCek5dYj-335">
          <mxGeometry relative="1" as="geometry">
            <mxPoint x="123" y="44" as="sourcePoint" />
            <mxPoint x="201" y="76" as="targetPoint" />
          </mxGeometry>
        </mxCell>
        <mxCell id="jg8gOIu9nnagvCek5dYj-342" style="rounded=0;orthogonalLoop=1;jettySize=auto;html=1;endArrow=blockThin;endFill=1;" edge="1" parent="jg8gOIu9nnagvCek5dYj-328" source="jg8gOIu9nnagvCek5dYj-335" target="jg8gOIu9nnagvCek5dYj-336">
          <mxGeometry relative="1" as="geometry">
            <mxPoint x="133" y="54" as="sourcePoint" />
            <mxPoint x="211" y="86" as="targetPoint" />
          </mxGeometry>
        </mxCell>
        <mxCell id="jg8gOIu9nnagvCek5dYj-343" style="rounded=0;orthogonalLoop=1;jettySize=auto;html=1;endArrow=blockThin;endFill=1;" edge="1" parent="jg8gOIu9nnagvCek5dYj-328" source="jg8gOIu9nnagvCek5dYj-336" target="jg8gOIu9nnagvCek5dYj-337">
          <mxGeometry relative="1" as="geometry">
            <mxPoint x="143" y="64" as="sourcePoint" />
            <mxPoint x="221" y="96" as="targetPoint" />
          </mxGeometry>
        </mxCell>
        <mxCell id="jg8gOIu9nnagvCek5dYj-344" style="rounded=0;orthogonalLoop=1;jettySize=auto;html=1;endArrow=blockThin;endFill=1;" edge="1" parent="jg8gOIu9nnagvCek5dYj-328" source="jg8gOIu9nnagvCek5dYj-337" target="jg8gOIu9nnagvCek5dYj-332">
          <mxGeometry relative="1" as="geometry">
            <mxPoint x="153" y="74" as="sourcePoint" />
            <mxPoint x="231" y="106" as="targetPoint" />
          </mxGeometry>
        </mxCell>
        <mxCell id="jg8gOIu9nnagvCek5dYj-345" value="T&lt;sub&gt;5&lt;/sub&gt;" style="text;strokeColor=none;align=center;fillColor=none;html=1;verticalAlign=middle;whiteSpace=wrap;rounded=0;" vertex="1" parent="jg8gOIu9nnagvCek5dYj-328">
          <mxGeometry x="82.5" y="35" width="40" height="20" as="geometry" />
        </mxCell>
        <mxCell id="jg8gOIu9nnagvCek5dYj-346" value="" style="group" vertex="1" connectable="0" parent="1">
          <mxGeometry x="83.5" y="-93" width="155" height="92" as="geometry" />
        </mxCell>
        <mxCell id="jg8gOIu9nnagvCek5dYj-347" value="0" style="ellipse;whiteSpace=wrap;html=1;aspect=fixed;" vertex="1" parent="jg8gOIu9nnagvCek5dYj-346">
          <mxGeometry width="20" height="20" as="geometry" />
        </mxCell>
        <mxCell id="jg8gOIu9nnagvCek5dYj-348" value="1" style="ellipse;whiteSpace=wrap;html=1;aspect=fixed;" vertex="1" parent="jg8gOIu9nnagvCek5dYj-346">
          <mxGeometry x="40" width="20" height="20" as="geometry" />
        </mxCell>
        <mxCell id="jg8gOIu9nnagvCek5dYj-349" style="rounded=0;orthogonalLoop=1;jettySize=auto;html=1;endArrow=blockThin;endFill=1;" edge="1" parent="jg8gOIu9nnagvCek5dYj-346" source="jg8gOIu9nnagvCek5dYj-347" target="jg8gOIu9nnagvCek5dYj-348">
          <mxGeometry relative="1" as="geometry" />
        </mxCell>
        <mxCell id="jg8gOIu9nnagvCek5dYj-350" value="2" style="ellipse;whiteSpace=wrap;html=1;aspect=fixed;" vertex="1" parent="jg8gOIu9nnagvCek5dYj-346">
          <mxGeometry x="81.5" width="20" height="20" as="geometry" />
        </mxCell>
        <mxCell id="jg8gOIu9nnagvCek5dYj-351" style="rounded=0;orthogonalLoop=1;jettySize=auto;html=1;endArrow=blockThin;endFill=1;" edge="1" parent="jg8gOIu9nnagvCek5dYj-346" source="jg8gOIu9nnagvCek5dYj-348" target="jg8gOIu9nnagvCek5dYj-350">
          <mxGeometry relative="1" as="geometry" />
        </mxCell>
        <mxCell id="jg8gOIu9nnagvCek5dYj-352" value="4" style="ellipse;whiteSpace=wrap;html=1;aspect=fixed;" vertex="1" parent="jg8gOIu9nnagvCek5dYj-346">
          <mxGeometry x="135" y="45" width="20" height="20" as="geometry" />
        </mxCell>
        <mxCell id="jg8gOIu9nnagvCek5dYj-353" value="5" style="ellipse;whiteSpace=wrap;html=1;aspect=fixed;" vertex="1" parent="jg8gOIu9nnagvCek5dYj-346">
          <mxGeometry x="107" y="72" width="20" height="20" as="geometry" />
        </mxCell>
        <mxCell id="jg8gOIu9nnagvCek5dYj-354" value="6" style="ellipse;whiteSpace=wrap;html=1;aspect=fixed;" vertex="1" parent="jg8gOIu9nnagvCek5dYj-346">
          <mxGeometry x="67" y="65" width="20" height="20" as="geometry" />
        </mxCell>
        <mxCell id="jg8gOIu9nnagvCek5dYj-355" value="7" style="ellipse;whiteSpace=wrap;html=1;aspect=fixed;" vertex="1" parent="jg8gOIu9nnagvCek5dYj-346">
          <mxGeometry x="53" y="30" width="20" height="20" as="geometry" />
        </mxCell>
        <mxCell id="jg8gOIu9nnagvCek5dYj-356" style="rounded=0;orthogonalLoop=1;jettySize=auto;html=1;endArrow=blockThin;endFill=1;" edge="1" parent="jg8gOIu9nnagvCek5dYj-346" source="jg8gOIu9nnagvCek5dYj-350" target="jg8gOIu9nnagvCek5dYj-357">
          <mxGeometry relative="1" as="geometry">
            <mxPoint x="69" y="24" as="sourcePoint" />
            <mxPoint x="92" y="36" as="targetPoint" />
          </mxGeometry>
        </mxCell>
        <mxCell id="jg8gOIu9nnagvCek5dYj-357" value="3" style="ellipse;whiteSpace=wrap;html=1;aspect=fixed;" vertex="1" parent="jg8gOIu9nnagvCek5dYj-346">
          <mxGeometry x="124" y="10" width="20" height="20" as="geometry" />
        </mxCell>
        <mxCell id="jg8gOIu9nnagvCek5dYj-358" style="rounded=0;orthogonalLoop=1;jettySize=auto;html=1;endArrow=blockThin;endFill=1;" edge="1" parent="jg8gOIu9nnagvCek5dYj-346" source="jg8gOIu9nnagvCek5dYj-357" target="jg8gOIu9nnagvCek5dYj-352">
          <mxGeometry relative="1" as="geometry">
            <mxPoint x="113" y="34" as="sourcePoint" />
            <mxPoint x="191" y="66" as="targetPoint" />
          </mxGeometry>
        </mxCell>
        <mxCell id="jg8gOIu9nnagvCek5dYj-359" style="rounded=0;orthogonalLoop=1;jettySize=auto;html=1;endArrow=blockThin;endFill=1;" edge="1" parent="jg8gOIu9nnagvCek5dYj-346" source="jg8gOIu9nnagvCek5dYj-352" target="jg8gOIu9nnagvCek5dYj-353">
          <mxGeometry relative="1" as="geometry">
            <mxPoint x="123" y="44" as="sourcePoint" />
            <mxPoint x="201" y="76" as="targetPoint" />
          </mxGeometry>
        </mxCell>
        <mxCell id="jg8gOIu9nnagvCek5dYj-360" style="rounded=0;orthogonalLoop=1;jettySize=auto;html=1;endArrow=blockThin;endFill=1;" edge="1" parent="jg8gOIu9nnagvCek5dYj-346" source="jg8gOIu9nnagvCek5dYj-353" target="jg8gOIu9nnagvCek5dYj-354">
          <mxGeometry relative="1" as="geometry">
            <mxPoint x="133" y="54" as="sourcePoint" />
            <mxPoint x="211" y="86" as="targetPoint" />
          </mxGeometry>
        </mxCell>
        <mxCell id="jg8gOIu9nnagvCek5dYj-361" style="rounded=0;orthogonalLoop=1;jettySize=auto;html=1;endArrow=blockThin;endFill=1;" edge="1" parent="jg8gOIu9nnagvCek5dYj-346" source="jg8gOIu9nnagvCek5dYj-354" target="jg8gOIu9nnagvCek5dYj-355">
          <mxGeometry relative="1" as="geometry">
            <mxPoint x="143" y="64" as="sourcePoint" />
            <mxPoint x="221" y="96" as="targetPoint" />
          </mxGeometry>
        </mxCell>
        <mxCell id="jg8gOIu9nnagvCek5dYj-362" style="rounded=0;orthogonalLoop=1;jettySize=auto;html=1;endArrow=blockThin;endFill=1;" edge="1" parent="jg8gOIu9nnagvCek5dYj-346" source="jg8gOIu9nnagvCek5dYj-355" target="jg8gOIu9nnagvCek5dYj-350">
          <mxGeometry relative="1" as="geometry">
            <mxPoint x="153" y="74" as="sourcePoint" />
            <mxPoint x="231" y="106" as="targetPoint" />
          </mxGeometry>
        </mxCell>
        <mxCell id="jg8gOIu9nnagvCek5dYj-363" value="T&lt;sub&gt;6&lt;/sub&gt;" style="text;strokeColor=none;align=center;fillColor=none;html=1;verticalAlign=middle;whiteSpace=wrap;rounded=0;" vertex="1" parent="jg8gOIu9nnagvCek5dYj-346">
          <mxGeometry x="82.5" y="35" width="40" height="20" as="geometry" />
        </mxCell>
        <UserObject label="" tags="Background" id="jg8gOIu9nnagvCek5dYj-373">
          <mxCell style="vsdxID=18;fillColor=#dae8fc;shape=stencil(vVFBDgIhDHwNRxKE+IJ1/Ufjll0iLpuCLv5eSDWKevLgbaYznTatMF2cYEGhVUwUjri6IU3C7ITWbp6QXCpImF6YzgbCkcJ5HpgvUJ0VncKlJmTuU7VDqyuzLdM9O4EORaLcaIpa7yNoo75GqSwhuygpJEguzM1UDzSiLGOk9TDec1iKK+LyUf5lsf+tVcDzzNZ5z1961d/fUkr8UtPfAA==);strokeColor=#6c8ebf;points=[[0.5,0,0],[0.5,0.5,0],[0.5,0.5,0],[0.5,0.5,0],[1,0.5,0],[0.15,0.85,0],[0.85,0.85,0],[0.85,0.15,0],[0.15,0.15,0]];labelBackgroundColor=none;rounded=0;html=1;whiteSpace=wrap;" vertex="1" parent="jg8gOIu9nnagvCek5dYj-346">
            <mxGeometry x="60" y="84" width="8" height="8" as="geometry" />
          </mxCell>
        </UserObject>
        <UserObject label="" tags="Background" id="jg8gOIu9nnagvCek5dYj-379">
          <mxCell style="vsdxID=17;fillColor=#ffe6cc;shape=stencil(vVFBDgIhDHwNRxKE+IJ1/Ufjll0iLpuCLv5eSDWKevLgbaYznTatMF2cYEGhVUwUjri6IU3C7ITWbp6QXCpImF6YzgbCkcJ5HpgvUJ0VncKlJmTuU7VDqyuzLdM9O4EORaLcaIpa7yNoo75GqSwhuygpJEguzM1UDzSiLGOk9TDec1iKK+LyUf5lsf+tVcDzzNZ5z1961d/fUkr8UtPfAA==);strokeColor=#d79b00;points=[[0.5,0,0],[0.5,0.5,0],[0.5,0.5,0],[0.5,0.5,0],[1,0.5,0],[0.15,0.85,0],[0.85,0.85,0],[0.85,0.15,0],[0.15,0.15,0]];labelBackgroundColor=none;rounded=0;html=1;whiteSpace=wrap;" vertex="1" parent="jg8gOIu9nnagvCek5dYj-346">
            <mxGeometry x="53" y="72" width="8" height="8" as="geometry" />
          </mxCell>
        </UserObject>
        <UserObject label="" tags="Background" id="jg8gOIu9nnagvCek5dYj-366">
          <mxCell style="vsdxID=17;fillColor=#ffe6cc;shape=stencil(vVFBDgIhDHwNRxKE+IJ1/Ufjll0iLpuCLv5eSDWKevLgbaYznTatMF2cYEGhVUwUjri6IU3C7ITWbp6QXCpImF6YzgbCkcJ5HpgvUJ0VncKlJmTuU7VDqyuzLdM9O4EORaLcaIpa7yNoo75GqSwhuygpJEguzM1UDzSiLGOk9TDec1iKK+LyUf5lsf+tVcDzzNZ5z1961d/fUkr8UtPfAA==);strokeColor=#d79b00;points=[[0.5,0,0],[0.5,0.5,0],[0.5,0.5,0],[0.5,0.5,0],[1,0.5,0],[0.15,0.85,0],[0.85,0.85,0],[0.85,0.15,0],[0.15,0.15,0]];labelBackgroundColor=none;rounded=0;html=1;whiteSpace=wrap;" vertex="1" parent="1">
            <mxGeometry x="93" y="-326" width="8" height="8" as="geometry" />
          </mxCell>
        </UserObject>
        <UserObject label="" tags="Background" id="jg8gOIu9nnagvCek5dYj-367">
          <mxCell style="vsdxID=18;fillColor=#dae8fc;shape=stencil(vVFBDgIhDHwNRxKE+IJ1/Ufjll0iLpuCLv5eSDWKevLgbaYznTatMF2cYEGhVUwUjri6IU3C7ITWbp6QXCpImF6YzgbCkcJ5HpgvUJ0VncKlJmTuU7VDqyuzLdM9O4EORaLcaIpa7yNoo75GqSwhuygpJEguzM1UDzSiLGOk9TDec1iKK+LyUf5lsf+tVcDzzNZ5z1961d/fUkr8UtPfAA==);strokeColor=#6c8ebf;points=[[0.5,0,0],[0.5,0.5,0],[0.5,0.5,0],[0.5,0.5,0],[1,0.5,0],[0.15,0.85,0],[0.85,0.85,0],[0.85,0.15,0],[0.15,0.15,0]];labelBackgroundColor=none;rounded=0;html=1;whiteSpace=wrap;" vertex="1" parent="1">
            <mxGeometry x="80" y="-326" width="8" height="8" as="geometry" />
          </mxCell>
        </UserObject>
        <UserObject label="" tags="Background" id="jg8gOIu9nnagvCek5dYj-368">
          <mxCell style="vsdxID=18;fillColor=#dae8fc;shape=stencil(vVFBDgIhDHwNRxKE+IJ1/Ufjll0iLpuCLv5eSDWKevLgbaYznTatMF2cYEGhVUwUjri6IU3C7ITWbp6QXCpImF6YzgbCkcJ5HpgvUJ0VncKlJmTuU7VDqyuzLdM9O4EORaLcaIpa7yNoo75GqSwhuygpJEguzM1UDzSiLGOk9TDec1iKK+LyUf5lsf+tVcDzzNZ5z1961d/fUkr8UtPfAA==);strokeColor=#6c8ebf;points=[[0.5,0,0],[0.5,0.5,0],[0.5,0.5,0],[0.5,0.5,0],[1,0.5,0],[0.15,0.85,0],[0.85,0.85,0],[0.85,0.15,0],[0.15,0.15,0]];labelBackgroundColor=none;rounded=0;html=1;whiteSpace=wrap;" vertex="1" parent="1">
            <mxGeometry x="315" y="-326" width="8" height="8" as="geometry" />
          </mxCell>
        </UserObject>
        <UserObject label="" tags="Background" id="jg8gOIu9nnagvCek5dYj-369">
          <mxCell style="vsdxID=18;fillColor=#dae8fc;shape=stencil(vVFBDgIhDHwNRxKE+IJ1/Ufjll0iLpuCLv5eSDWKevLgbaYznTatMF2cYEGhVUwUjri6IU3C7ITWbp6QXCpImF6YzgbCkcJ5HpgvUJ0VncKlJmTuU7VDqyuzLdM9O4EORaLcaIpa7yNoo75GqSwhuygpJEguzM1UDzSiLGOk9TDec1iKK+LyUf5lsf+tVcDzzNZ5z1961d/fUkr8UtPfAA==);strokeColor=#6c8ebf;points=[[0.5,0,0],[0.5,0.5,0],[0.5,0.5,0],[0.5,0.5,0],[1,0.5,0],[0.15,0.85,0],[0.85,0.85,0],[0.85,0.15,0],[0.15,0.15,0]];labelBackgroundColor=none;rounded=0;html=1;whiteSpace=wrap;" vertex="1" parent="1">
            <mxGeometry x="544" y="-326" width="8" height="8" as="geometry" />
          </mxCell>
        </UserObject>
        <UserObject label="" tags="Background" id="jg8gOIu9nnagvCek5dYj-371">
          <mxCell style="vsdxID=18;fillColor=#dae8fc;shape=stencil(vVFBDgIhDHwNRxKE+IJ1/Ufjll0iLpuCLv5eSDWKevLgbaYznTatMF2cYEGhVUwUjri6IU3C7ITWbp6QXCpImF6YzgbCkcJ5HpgvUJ0VncKlJmTuU7VDqyuzLdM9O4EORaLcaIpa7yNoo75GqSwhuygpJEguzM1UDzSiLGOk9TDec1iKK+LyUf5lsf+tVcDzzNZ5z1961d/fUkr8UtPfAA==);strokeColor=#6c8ebf;points=[[0.5,0,0],[0.5,0.5,0],[0.5,0.5,0],[0.5,0.5,0],[1,0.5,0],[0.15,0.85,0],[0.85,0.85,0],[0.85,0.15,0],[0.15,0.15,0]];labelBackgroundColor=none;rounded=0;html=1;whiteSpace=wrap;" vertex="1" parent="1">
            <mxGeometry x="427.5" y="-141" width="8" height="8" as="geometry" />
          </mxCell>
        </UserObject>
        <UserObject label="" tags="Background" id="jg8gOIu9nnagvCek5dYj-372">
          <mxCell style="vsdxID=18;fillColor=#dae8fc;shape=stencil(vVFBDgIhDHwNRxKE+IJ1/Ufjll0iLpuCLv5eSDWKevLgbaYznTatMF2cYEGhVUwUjri6IU3C7ITWbp6QXCpImF6YzgbCkcJ5HpgvUJ0VncKlJmTuU7VDqyuzLdM9O4EORaLcaIpa7yNoo75GqSwhuygpJEguzM1UDzSiLGOk9TDec1iKK+LyUf5lsf+tVcDzzNZ5z1961d/fUkr8UtPfAA==);strokeColor=#6c8ebf;points=[[0.5,0,0],[0.5,0.5,0],[0.5,0.5,0],[0.5,0.5,0],[1,0.5,0],[0.15,0.85,0],[0.85,0.85,0],[0.85,0.15,0],[0.15,0.15,0]];labelBackgroundColor=none;rounded=0;html=1;whiteSpace=wrap;" vertex="1" parent="1">
            <mxGeometry x="578" y="-106" width="8" height="8" as="geometry" />
          </mxCell>
        </UserObject>
        <UserObject label="" tags="Background" id="jg8gOIu9nnagvCek5dYj-374">
          <mxCell style="vsdxID=17;fillColor=#ffe6cc;shape=stencil(vVFBDgIhDHwNRxKE+IJ1/Ufjll0iLpuCLv5eSDWKevLgbaYznTatMF2cYEGhVUwUjri6IU3C7ITWbp6QXCpImF6YzgbCkcJ5HpgvUJ0VncKlJmTuU7VDqyuzLdM9O4EORaLcaIpa7yNoo75GqSwhuygpJEguzM1UDzSiLGOk9TDec1iKK+LyUf5lsf+tVcDzzNZ5z1961d/fUkr8UtPfAA==);strokeColor=#d79b00;points=[[0.5,0,0],[0.5,0.5,0],[0.5,0.5,0],[0.5,0.5,0],[1,0.5,0],[0.15,0.85,0],[0.85,0.85,0],[0.85,0.15,0],[0.15,0.15,0]];labelBackgroundColor=none;rounded=0;html=1;whiteSpace=wrap;" vertex="1" parent="1">
            <mxGeometry x="355" y="-326" width="8" height="8" as="geometry" />
          </mxCell>
        </UserObject>
        <UserObject label="" tags="Background" id="jg8gOIu9nnagvCek5dYj-375">
          <mxCell style="vsdxID=17;fillColor=#ffe6cc;shape=stencil(vVFBDgIhDHwNRxKE+IJ1/Ufjll0iLpuCLv5eSDWKevLgbaYznTatMF2cYEGhVUwUjri6IU3C7ITWbp6QXCpImF6YzgbCkcJ5HpgvUJ0VncKlJmTuU7VDqyuzLdM9O4EORaLcaIpa7yNoo75GqSwhuygpJEguzM1UDzSiLGOk9TDec1iKK+LyUf5lsf+tVcDzzNZ5z1961d/fUkr8UtPfAA==);strokeColor=#d79b00;points=[[0.5,0,0],[0.5,0.5,0],[0.5,0.5,0],[0.5,0.5,0],[1,0.5,0],[0.15,0.85,0],[0.85,0.85,0],[0.85,0.15,0],[0.15,0.15,0]];labelBackgroundColor=none;rounded=0;html=1;whiteSpace=wrap;" vertex="1" parent="1">
            <mxGeometry x="611.5" y="-251" width="8" height="8" as="geometry" />
          </mxCell>
        </UserObject>
        <UserObject label="" tags="Background" id="jg8gOIu9nnagvCek5dYj-377">
          <mxCell style="vsdxID=17;fillColor=#ffe6cc;shape=stencil(vVFBDgIhDHwNRxKE+IJ1/Ufjll0iLpuCLv5eSDWKevLgbaYznTatMF2cYEGhVUwUjri6IU3C7ITWbp6QXCpImF6YzgbCkcJ5HpgvUJ0VncKlJmTuU7VDqyuzLdM9O4EORaLcaIpa7yNoo75GqSwhuygpJEguzM1UDzSiLGOk9TDec1iKK+LyUf5lsf+tVcDzzNZ5z1961d/fUkr8UtPfAA==);strokeColor=#d79b00;points=[[0.5,0,0],[0.5,0.5,0],[0.5,0.5,0],[0.5,0.5,0],[1,0.5,0],[0.15,0.85,0],[0.85,0.85,0],[0.85,0.15,0],[0.15,0.15,0]];labelBackgroundColor=none;rounded=0;html=1;whiteSpace=wrap;" vertex="1" parent="1">
            <mxGeometry x="360" y="-214" width="8" height="8" as="geometry" />
          </mxCell>
        </UserObject>
        <UserObject label="" tags="Background" id="jg8gOIu9nnagvCek5dYj-378">
          <mxCell style="vsdxID=17;fillColor=#ffe6cc;shape=stencil(vVFBDgIhDHwNRxKE+IJ1/Ufjll0iLpuCLv5eSDWKevLgbaYznTatMF2cYEGhVUwUjri6IU3C7ITWbp6QXCpImF6YzgbCkcJ5HpgvUJ0VncKlJmTuU7VDqyuzLdM9O4EORaLcaIpa7yNoo75GqSwhuygpJEguzM1UDzSiLGOk9TDec1iKK+LyUf5lsf+tVcDzzNZ5z1961d/fUkr8UtPfAA==);strokeColor=#d79b00;points=[[0.5,0,0],[0.5,0.5,0],[0.5,0.5,0],[0.5,0.5,0],[1,0.5,0],[0.15,0.85,0],[0.85,0.85,0],[0.85,0.15,0],[0.15,0.15,0]];labelBackgroundColor=none;rounded=0;html=1;whiteSpace=wrap;" vertex="1" parent="1">
            <mxGeometry x="615" y="-141" width="8" height="8" as="geometry" />
          </mxCell>
        </UserObject>
      </root>
    </mxGraphModel>
  </diagram>
</mxfile>
